<svg width="47" height="29" viewBox="0 0 47 29" fill="none" xmlns="http://www.w3.org/2000/svg">
    <path d="M4.4212 25.9162C3.14494 27.6566 0.921083 28.4952 0 28.5413C8.98056 28.5413 8.98056 28.6794 11.882 27.0215C13.0322 26.3642 14.5531 23.1069 14.7834 21.9095C16.5334 15.9224 19.7375 4.50892 20.5862 2.98121C21.277 1.73775 21.6915 0.494288 24.3166 0.0798001C16.8558 0.0797999 15.6124 -0.196526 13.5399 1.32326C11.6057 2.74173 11.1203 4.39998 10.7767 5.46814C8.65818 12.0539 5.94099 23.8438 4.4212 25.9162Z" fill="#EDB901"/>
    <path d="M10.2241 25.9162C8.94786 27.6565 6.724 28.4952 5.80292 28.5412C14.7835 28.5412 15.198 28.5412 17.6849 27.0215C18.8153 26.3306 20.356 23.1069 20.5863 21.9094C22.3364 15.9224 25.5404 4.50889 26.3891 2.98118C27.0799 1.73772 27.4944 0.494256 30.1195 0.0797682C22.9351 -0.0583948 21.4153 -0.196556 19.3428 1.32323C17.4086 2.7417 16.9232 4.39995 16.5796 5.46811C14.4611 12.0539 11.7439 23.8437 10.2241 25.9162Z" fill="#059DB5"/>
    <path d="M40.7582 0.0797876H46.6992L33.2974 14.1724L43.2451 28.4031C38.1331 28.4031 35.2317 28.8176 32.8829 27.436C31.6921 26.7355 30.7184 25.4556 30.2578 24.8109L22.7971 14.1724C22.7971 14.1724 34.2079 1.35159 35.6462 0.632438C37.0845 -0.0867091 38.4094 0.079788 40.7582 0.0797876Z" fill="#059DB5"/>
</svg>
